<svg id="visual" viewBox="0 0 900 600" width="900" height="600" xmlns="http://www.w3.org/2000/svg" xmlns:xlink="http://www.w3.org/1999/xlink" version="1.1"><rect x="0" y="0" width="900" height="600" fill="#ffffff"></rect><defs><linearGradient id="grad1_0" x1="33.3%" y1="0%" x2="100%" y2="100%"><stop offset="20%" stop-color="#ffffff" stop-opacity="1"></stop><stop offset="80%" stop-color="#ffffff" stop-opacity="1"></stop></linearGradient></defs><defs><linearGradient id="grad2_0" x1="0%" y1="0%" x2="66.7%" y2="100%"><stop offset="20%" stop-color="#ffffff" stop-opacity="1"></stop><stop offset="80%" stop-color="#ffffff" stop-opacity="1"></stop></linearGradient></defs><g transform="translate(900, 0)"><path d="M0 270.4C-35.9 262.6 -71.7 254.8 -98 236.5C-124.2 218.3 -140.9 189.6 -167.6 167.6C-194.3 145.6 -231 130.3 -249.8 103.5C-268.6 76.7 -269.5 38.3 -270.4 0L0 0Z" fill="#113D6B"></path></g><g transform="translate(0, 600)"><path d="M0 -270.4C31.1 -252.9 62.1 -235.3 91.5 -220.8C120.8 -206.3 148.5 -194.8 176.8 -176.8C205.1 -158.7 234.1 -134 249.8 -103.5C265.6 -72.9 268 -36.5 270.4 0L0 0Z" fill="#113D6B"></path></g></svg>